<svg xmlns="http://www.w3.org/2000/svg" xmlns:xlink="http://www.w3.org/1999/xlink" viewBox="0 0 277.5 277.5"><defs><style>.cls-1{fill:url(#Degradado_sin_nombre_13);}</style><linearGradient id="Degradado_sin_nombre_13" y1="138.75" x2="277.5" y2="138.75" gradientUnits="userSpaceOnUse"><stop offset="0" stop-color="#22d0fd"/><stop offset="0.08" stop-color="#27bdfd"/><stop offset="0.29" stop-color="#3290fe"/><stop offset="0.5" stop-color="#3b6dfe"/><stop offset="0.69" stop-color="#4254ff"/><stop offset="0.86" stop-color="#4644ff"/><stop offset="1" stop-color="#473fff"/></linearGradient></defs><g id="Capa_2" data-name="Capa 2"><g id="Capa_1-2" data-name="Capa 1"><path class="cls-1" d="M227.63,0H49.88A49.88,49.88,0,0,0,0,49.88V227.63A49.88,49.88,0,0,0,49.88,277.5H227.63a49.87,49.87,0,0,0,49.87-49.87V49.88A49.88,49.88,0,0,0,227.63,0ZM186.07,75.55H168.79c-13.55,0-16.17,6.65-16.17,16.38V115.1h30.57L179,148.74H152.62v84.64h-33.7V148.73H91.43V115.09h27.49V88.59c0-28.8,17.07-44.46,42-44.46a223.47,223.47,0,0,1,25.17,1.33Z"/></g></g></svg>