<svg xmlns="http://www.w3.org/2000/svg" viewBox="0 0 512 361.02"><defs><style>.cls-1{fill:#fff;}</style></defs><g id="Capa_2" data-name="Capa 2"><g id="Capa_1-2" data-name="Capa 1"><path class="cls-1" d="M369.2,121.77l-37.62,37.62L307.5,135.3a15,15,0,0,0-21.22,21.22L321,191.21a15,15,0,0,0,21.21,0L390.42,143a15,15,0,1,0-21.22-21.22Z"/><path class="cls-1" d="M227.05,33.53l-.58,0H120.36a15,15,0,0,0,0,30h74a179.67,179.67,0,0,0-42.55,102.1h-87a15,15,0,0,0,0,30h87a179.67,179.67,0,0,0,42.55,102.1H15a15,15,0,0,0,0,30c2,0,210.85,0,212.05,0A179.44,179.44,0,0,0,331.59,361C431.9,361,512,279.55,512,180.6,512,33.46,345.36-50.82,227.05,33.53ZM331.59,331c-82.46,0-150.42-66.59-150.42-150.42A149.12,149.12,0,0,1,228.05,71.5c95.19-90.44,254-23.19,254,109.1C482,263.35,415,331,331.59,331Z"/><circle class="cls-1" cx="331.58" cy="82.77" r="16.67"/><circle class="cls-1" cx="331.58" cy="278.44" r="16.67"/><path class="cls-1" d="M428.86,163.38a16.67,16.67,0,1,0,16.67,16.67A16.67,16.67,0,0,0,428.86,163.38Z"/><circle class="cls-1" cx="233.13" cy="180.07" r="16.67" transform="translate(-25.81 39.63) rotate(-9.21)"/></g></g></svg>