<svg xmlns="http://www.w3.org/2000/svg" viewBox="0 0 568.88 238.34"><g id="Capa_2" data-name="Capa 2"><g id="Capa_1-2" data-name="Capa 1"><path d="M174.53,238.34H177a.83.83,0,0,1,0-.44l-2.57,0A.79.79,0,0,0,174.53,238.34Z"/><path d="M512.75,127.81c-4.19-1.81-8.73-2.68-12.77-4.9a6.33,6.33,0,0,0-2.43-.52,345.2,345.2,0,0,0-44.45-.22c-15.8.83-31.37,3.85-47.05,5.82-5.54.7-10.93,2.28-15,6.61-.94,1-1.9,2.67-3.36,2.17s-1.08-2.42-1.08-3.77c0-1.85-.83-2.18-2.33-1.47-1.72.81-3.4,1.72-5.12,2.53-.85.4-1.71.7-2.3-.5-.95-1.92-2.4-1.45-3.77-.59a26.47,26.47,0,0,0-4.58,4.21c-3.89,4-8.45,6.72-14.11,7.24-1.31.12-3,.3-3.57-1.08-.43-1.14,1.17-1.76,2-2.55a9.51,9.51,0,0,0,.76-.64c1.06-1.32,3.57-2.39,1.93-4.43-1.81-2.25-3.46,0-4.8,1.1-3.1,2.52-6,5.26-9,7.87a4.45,4.45,0,0,1-4.13,1.22c-7.56-1.82-14.83-.52-21.92,2.26-1.92.76-3.73,1.25-5.75.33-1.4-.64-3.07-1.51-4.36,0s-.16,3,.62,4.34c.13.21.24.43.37.65a3,3,0,0,1-1,4.5,28.89,28.89,0,0,1-6.66,3.35,3.42,3.42,0,0,1-3.53-.43c-4.15-3.37-4.34-8.25-.42-11.75.67-.61,1.39-1.37,2.38-.87,1.17.59.81,1.73.6,2.67-.24,1.13-.7,2.21-1,3.32a3.43,3.43,0,0,0,0,2.83,16.55,16.55,0,0,0,4.88-10.37c.22-2.41-.73-3.19-3.17-2.54a16.94,16.94,0,0,0-10,7.71c-1.2,1.89-2.63,3.47-5,3.68a138.91,138.91,0,0,0-15.05,2.22,2.63,2.63,0,0,1-2.36-.26c1.43-1.57,2.76-3.13,4.2-4.59,15-15.17,30.63-29.68,46.32-44.12,13.18-12.13,27.12-23.4,40.4-35.41a63.73,63.73,0,0,1,17-11.1c10.24-4.57,20.72-8.55,31.23-12.44,19.25-7.1,38.3-14.69,56.4-24.46a49.19,49.19,0,0,0,11.37-8,13.65,13.65,0,0,0,4.27-8c.62-4.56-1.34-7.65-5.86-8.61C466-.34,460.67-.5,455.51,2c-3.45,1.65-6.94,3.18-10.26,5.1-23.48,13.54-45.22,29.6-66.72,46-6.46,4.94-13.38,9.07-21.35,11-8.9,2.14-17.17,1.15-23.93-5.81a3.56,3.56,0,0,0-2-1c-1.09-.22-2.27-.58-3,.44s.2,2.06.9,2.81a29.63,29.63,0,0,0,8.3,6.32,17.06,17.06,0,0,0,8,1.54h13.2a7.69,7.69,0,0,1-2.88,2.74c-11.1,7.45-21.07,16.29-31,25.18-22.54,20.18-44,41.51-65.46,62.8a8,8,0,0,1-4,2.32A150.21,150.21,0,0,0,200,186.82c-11.77,8.65-21.7,18.88-28.18,32.16a14.44,14.44,0,0,0-1.71,5.68c-.05,1.22-.73,3.24.73,3.5s2.33-1.55,2.83-3a5.56,5.56,0,0,0,.26-1,14.08,14.08,0,0,1,1.8-4.88A88.88,88.88,0,0,1,194,196.38c15.48-13.84,33.82-22.44,53.11-29.34a13.43,13.43,0,0,1,2.19-.52c.81-.15,1.81-.4,2.25.51s-.42,1.34-.92,1.87a6.13,6.13,0,0,1-.93.83,82.38,82.38,0,0,0-9.41,8.2c-14.85,14.35-29.08,29.36-44.35,43.28-4.12,3.76-8.2,7.6-12.94,10.59-3.24,2-6.56,4.72-10.4.92a1.13,1.13,0,0,0-1.59-.15c-.5.46-.33,1-.16,1.63a4.89,4.89,0,0,0,3.62,3.74,1.64,1.64,0,0,1,2.57,0,17.78,17.78,0,0,0,6.21-2.49,99.66,99.66,0,0,0,16.62-12.73q27.56-25.81,53.37-53.36a24.8,24.8,0,0,1,13.66-7.51c5.85-1.23,11.89-1.55,17.56-3.66a3.45,3.45,0,0,1,3.25.78c1.08.76,2.09,1.64,3.12,2.47,3,2.45,6.4,4.06,10.37,2.92,3.54-1,5.94-3.63,7.75-6.7a11.78,11.78,0,0,1,7.69-5.85c5.08-1.22,10.15-2.56,15.21-3.87a2.68,2.68,0,0,1,3,4,52.52,52.52,0,0,1-4.13,6.23c-2,2.74-3.89,5.53-4.84,9a4.14,4.14,0,0,0,2.56-1.72c1-1,1.86-3.21,3.27-2.45s.66,3,.61,4.66a2.38,2.38,0,0,1-.16.47c-1,3.2-2.69,3.67-5.09,1.35-.71-.68-1.25-.79-1.84,0-1,1.37-1.84,2.92-1.09,4.62s2.43,1.69,4.08,1.6c4.23-.24,5.64-3.22,6.64-6.67,1.53-5.26,2.33-10.72,4.37-15.84,1.65-4.13,7.86-7.69,12-6.18s7.63.51,11.22-1.21a111.81,111.81,0,0,0,12.91-7c3-1.95,4.71-1.95,6.4.17,1.29,1.62,2.62,1.75,4.37,1.14a100.3,100.3,0,0,0,9.78-4.34c4.67-2.19,9.37-4.56,14.61-4.69,12.71-.3,25.14-2.73,37.68-4.37,10.49-1.37,21-2.38,31.63-1.79,4.45.25,8.75,1.87,13.29,1.84a31.85,31.85,0,0,1,6.44.72C507.38,129,514.43,132,520,137.78c5,5.27,5.27,10.85.88,16.62a26.88,26.88,0,0,1-4.57,4.6,85.81,85.81,0,0,1-13.52,8.91,653.81,653.81,0,0,1-94.16,41.17,63.38,63.38,0,0,1-23.86,3.31c-4.24-.21-5.92-2.24-5.44-6.5a16.72,16.72,0,0,1,1.49-5c4.13-9.05,10.48-16.41,18-22.75C421.62,158.81,447.21,144,475,132.94a57.72,57.72,0,0,0,7-3.16c.5-.29,1.07-.63.88-1.34s-.87-.77-1.42-.75a17.31,17.31,0,0,0-5.12,1c-17.06,5.86-32.86,14.33-48.28,23.55-14.27,8.53-27.63,18.27-39.14,30.36a68.77,68.77,0,0,0-10.17,13.24,22.62,22.62,0,0,0-3.4,12.09c.14,4.12,2.05,6.64,5.95,8a20.85,20.85,0,0,0,8.39.75c9.56-.69,18.59-3.58,27.54-6.67,21.93-7.58,43-17.21,64-27,11.39-5.28,22.83-10.46,33-18,4-2.93,7.78-6,10.56-10.18,3.67-5.47,3.74-11,.32-16.63A26.1,26.1,0,0,0,512.75,127.81ZM386.6,50.7c21.53-15.19,42.51-31.2,66.13-43.19,5.31-2.69,10.79-4.25,16.83-3.25,3.15.51,4.29,2,3.68,5.14a9.67,9.67,0,0,1-3,5.06,50.49,50.49,0,0,1-11.43,8c-16.47,8.91-33.9,15.64-51.33,22.36-6.81,2.63-13.16,6.35-20.25,8.29-.93.26-1.81.86-3.07.25A7.4,7.4,0,0,1,386.6,50.7Z"/><path d="M164.37,25.49a35.78,35.78,0,0,0-17.08-.4A184.8,184.8,0,0,0,88.48,49.57C81.45,54.1,75,59.36,70,66.19a15.48,15.48,0,0,0-3,6.49c-.94,5.62,1.78,9.81,5.4,13.58,4.29,4.46,9.61,7.34,15.28,9.65a25.82,25.82,0,0,1,6.81,3.59c1,.83,1.42,1.7-.15,2.4-4.15,1.84-7.66,4.67-11.31,7.27C57.87,127.08,33.89,146.55,9.15,165c-2.73,2-5.23,4.38-7.79,6.64-.79.69-1.92,1.6-1,2.71s2,0,2.83-.5c2.49-1.65,4.95-3.37,7.32-5.19,19.2-14.77,38.17-29.81,57.68-44.18,8.63-6.35,18-11.85,25.63-19.43,4.12-4.09,7.89-4.65,13-2.47,4.34,1.83,8.59,4,13.15,5.26,10.69,2.87,20.48,7.71,29.89,13.38a16.69,16.69,0,0,1,5.78,5.43,7.08,7.08,0,0,1-.38,8.8,20.2,20.2,0,0,1-5,4.48C130.6,153,109.14,160,85.36,158.85c-6.68-.31-9-2.19-11-8.17a3.76,3.76,0,0,1-.2-.46A1.37,1.37,0,0,0,72.79,149a1.59,1.59,0,0,0-1.27,1.07c-1,2.2-1.21,4.39.42,6.34a17.08,17.08,0,0,0,10.93,6.42,49.54,49.54,0,0,0,8.6.6c19.25-.05,46.59-9.41,61.3-20.8a32.44,32.44,0,0,0,5.31-4.9c4-4.9,4.09-8.69.06-13.63a36.28,36.28,0,0,0-9.87-8.35c-12.78-7.47-26.64-12.28-40.84-16.23-1.07-.29-2.57,0-2.76-1.53-.16-1.3.88-2.1,1.89-2.72C117,88.9,126.11,80.85,135.4,73.05c10.53-8.84,20.8-18,29.25-28.93a19,19,0,0,0,4.34-13C168.81,27.91,167.5,26.29,164.37,25.49Zm.88,9.31c-1.9,5.2-5.41,9.31-9.11,13.28a342.83,342.83,0,0,1-41,36.82c-4.15,3.2-8.09,6.67-12.35,9.73a6.22,6.22,0,0,1-5.85,1A64.75,64.75,0,0,1,76.75,85.53c-5.32-4.08-6.62-10.2-3.79-16.29a22.13,22.13,0,0,1,5.74-7.46c11.18-9.69,24.2-16.31,37.51-22.43,11.92-5.48,24.26-9.54,37.33-11.15,1.07-.13,2.15-.18,3.63-.31,1.19.13,2.77.24,4.32.49C164.91,28.94,166.43,31.54,165.25,34.8Z"/><path d="M554.07,106.07c-7.4,1.7-15.23,1.64-22.11,5.41a3.72,3.72,0,0,1-1.45.35c-9.57.72-18.45,4-27.33,7.31a5.64,5.64,0,0,0-3.18,2.1c1.75,1.17,3.26.22,4.74-.06,13.47-2.57,26.25-7.84,39.79-10.13,3.43-.57,6.92-1,10.15-2.46.9-.4,2.05-.9,1.61-2.12C555.93,105.47,554.82,105.9,554.07,106.07Z"/><path d="M565.25,104.44a2.87,2.87,0,0,0-1.22.13c-.83.24-2.2,0-2.23,1.1,0,1.28,1.33,1.47,2.38,1.7a6.53,6.53,0,0,0,1,.08c1.42-.12,3.66-.09,3.67-1.58C568.89,104.12,566.61,104.68,565.25,104.44Z"/><path d="M205.33,148.13a2.2,2.2,0,0,0,2.1-2.36,2,2,0,0,0-2.14-2.22,2.29,2.29,0,0,0-2.22,2.5C203.14,147.4,204.12,148,205.33,148.13Z"/></g></g></svg>