<svg xmlns="http://www.w3.org/2000/svg" xmlns:xlink="http://www.w3.org/1999/xlink" viewBox="0 0 378.12 375.19"><defs><style>.cls-1{fill:none;stroke:#ececec;}.cls-1,.cls-6{stroke-miterlimit:10;}.cls-2{fill:url(#Degradado_sin_nombre_13);}.cls-3{fill:url(#Degradado_sin_nombre_13-2);}.cls-4{fill:url(#Degradado_sin_nombre_13-3);}.cls-5{fill:#0e0028;}.cls-6{stroke:#100000;}.cls-7{opacity:0.21;}.cls-8{fill:#10418c;}.cls-9{fill:url(#Degradado_sin_nombre_13-4);}</style><linearGradient id="Degradado_sin_nombre_13" x1="206.37" y1="88.58" x2="206.37" y2="304.07" gradientUnits="userSpaceOnUse"><stop offset="0" stop-color="#22d0fd"/><stop offset="0.08" stop-color="#27bdfd"/><stop offset="0.29" stop-color="#3290fe"/><stop offset="0.5" stop-color="#3b6dfe"/><stop offset="0.69" stop-color="#4254ff"/><stop offset="0.86" stop-color="#4644ff"/><stop offset="1" stop-color="#473fff"/></linearGradient><linearGradient id="Degradado_sin_nombre_13-2" x1="345.87" y1="4.58" x2="345.87" y2="304.07" xlink:href="#Degradado_sin_nombre_13"/><linearGradient id="Degradado_sin_nombre_13-3" x1="67.62" y1="141.83" x2="67.62" y2="304.07" xlink:href="#Degradado_sin_nombre_13"/><linearGradient id="Degradado_sin_nombre_13-4" x1="44.84" y1="353.71" x2="44.84" y2="375.19" xlink:href="#Degradado_sin_nombre_13"/></defs><g id="Capa_2" data-name="Capa 2"><g id="Capa_1-2" data-name="Capa 1"><line class="cls-1" x1="36.96" y1="4.58" x2="376.96" y2="4.58"/><line class="cls-1" x1="36.96" y1="80.08" x2="376.96" y2="80.08"/><line class="cls-1" x1="36.96" y1="153.83" x2="376.96" y2="153.83"/><path class="cls-2" d="M185.12,88.58h42.5a10.5,10.5,0,0,1,10.5,10.5v205a0,0,0,0,1,0,0h-63.5a0,0,0,0,1,0,0v-205A10.5,10.5,0,0,1,185.12,88.58Z"/><path class="cls-3" d="M324.62,4.58h42.5a10.5,10.5,0,0,1,10.5,10.5v289a0,0,0,0,1,0,0h-63.5a0,0,0,0,1,0,0v-289A10.5,10.5,0,0,1,324.62,4.58Z"/><line class="cls-1" x1="36.96" y1="229.21" x2="376.96" y2="229.21"/><path class="cls-4" d="M46.37,141.83h42.5a10.5,10.5,0,0,1,10.5,10.5V304.07a0,0,0,0,1,0,0H35.87a0,0,0,0,1,0,0V152.33A10.5,10.5,0,0,1,46.37,141.83Z"/><path class="cls-5" d="M46.37,210.07h42.5a10.5,10.5,0,0,1,10.5,10.5v83.5a0,0,0,0,1,0,0H35.87a0,0,0,0,1,0,0v-83.5A10.5,10.5,0,0,1,46.37,210.07Z"/><path class="cls-5" d="M185.5,194.71H228a10.5,10.5,0,0,1,10.5,10.5v98.86a0,0,0,0,1,0,0H175a0,0,0,0,1,0,0V205.21A10.5,10.5,0,0,1,185.5,194.71Z"/><path class="cls-5" d="M325,153.46h42.5A10.5,10.5,0,0,1,378,164V304.07a0,0,0,0,1,0,0H314.5a0,0,0,0,1,0,0V164A10.5,10.5,0,0,1,325,153.46Z"/><line class="cls-6" x1="35.9" y1="303.92" x2="378.12" y2="303.92"/><g class="cls-7"><path class="cls-8" d="M.83,14.23V13.3l1.25-1.1C5.4,9.23,6.6,8,6.61,6.48A2.09,2.09,0,0,0,4.23,4.25a4.2,4.2,0,0,0-2.6,1L1.1,4.23A5.3,5.3,0,0,1,4.55,3,3.28,3.28,0,0,1,8.17,6.24c0,2-1.52,3.57-4.16,5.93l-.92.76v0H8.46v1.27Z" transform="translate(-0.66 -2.98)"/><path class="cls-8" d="M18.24,8.56c0,3.66-1.45,5.87-4.16,5.87-2.31,0-3.92-2-4-5.68S11.88,3,14.27,3,18.24,5,18.24,8.56Zm-6.56.2c0,3,1,4.5,2.48,4.5,1.68,0,2.51-1.75,2.51-4.61s-.78-4.5-2.49-4.5C12.79,4.15,11.68,5.66,11.68,8.76Z" transform="translate(-0.66 -2.98)"/><path class="cls-8" d="M27.69,8.56c0,3.66-1.44,5.87-4.16,5.87-2.31,0-3.92-2-4-5.68S21.33,3,23.72,3,27.69,5,27.69,8.56Zm-6.56.2c0,3,1,4.5,2.48,4.5,1.69,0,2.51-1.75,2.51-4.61s-.78-4.5-2.49-4.5C22.25,4.15,21.13,5.66,21.13,8.76Z" transform="translate(-0.66 -2.98)"/></g><g class="cls-7"><path class="cls-8" d="M4.28,79.09h0l-1.95,1L2,78.94l2.44-1.26H5.78v11H4.28Z" transform="translate(-0.66 -2.98)"/><path class="cls-8" d="M17.37,79H12.76l-.42,2.8a8.56,8.56,0,0,1,1.06-.07,5.32,5.32,0,0,1,2.48.53,3.16,3.16,0,0,1,1.79,2.94c0,2.14-1.82,3.76-4.37,3.76a6,6,0,0,1-3-.74l.4-1.18a5.47,5.47,0,0,0,2.65.69,2.54,2.54,0,0,0,2.77-2.37c0-1.31-.93-2.42-3.39-2.42a11.6,11.6,0,0,0-1.76.14l.72-5.37h5.72Z" transform="translate(-0.66 -2.98)"/><path class="cls-8" d="M27.69,83.06c0,3.66-1.44,5.87-4.16,5.87-2.31,0-3.92-2-4-5.68s1.76-5.77,4.15-5.77S27.69,79.54,27.69,83.06Zm-6.56.2c0,3,1,4.5,2.48,4.5,1.69,0,2.51-1.75,2.51-4.61s-.78-4.5-2.49-4.5C22.25,78.65,21.13,80.16,21.13,83.26Z" transform="translate(-0.66 -2.98)"/></g><g class="cls-7"><path class="cls-8" d="M4.28,151.09h0l-1.95,1L2,150.94l2.44-1.26H5.78v11H4.28Z" transform="translate(-0.66 -2.98)"/><path class="cls-8" d="M18.24,155.06c0,3.66-1.45,5.87-4.16,5.87-2.31,0-3.92-2-4-5.68s1.77-5.77,4.16-5.77S18.24,151.54,18.24,155.06Zm-6.56.2c0,3,1,4.5,2.48,4.5,1.68,0,2.51-1.75,2.51-4.61s-.78-4.5-2.49-4.5C12.79,150.65,11.68,152.16,11.68,155.26Z" transform="translate(-0.66 -2.98)"/><path class="cls-8" d="M27.69,155.06c0,3.66-1.44,5.87-4.16,5.87-2.31,0-3.92-2-4-5.68s1.76-5.77,4.15-5.77S27.69,151.54,27.69,155.06Zm-6.56.2c0,3,1,4.5,2.48,4.5,1.69,0,2.51-1.75,2.51-4.61s-.78-4.5-2.49-4.5C22.25,150.65,21.13,152.16,21.13,155.26Z" transform="translate(-0.66 -2.98)"/></g><g class="cls-7"><path class="cls-8" d="M7.92,227H3.3l-.41,2.8A8.56,8.56,0,0,1,4,229.7a5.32,5.32,0,0,1,2.48.53,3.16,3.16,0,0,1,1.79,2.94c0,2.14-1.83,3.76-4.37,3.76a6,6,0,0,1-3-.74l.4-1.18a5.42,5.42,0,0,0,2.64.69,2.55,2.55,0,0,0,2.78-2.37c0-1.31-.93-2.42-3.39-2.42a11.49,11.49,0,0,0-1.76.14l.72-5.37H7.92Z" transform="translate(-0.66 -2.98)"/><path class="cls-8" d="M18.24,231.06c0,3.66-1.45,5.87-4.16,5.87-2.31,0-3.92-2-4-5.68s1.77-5.77,4.16-5.77S18.24,227.54,18.24,231.06Zm-6.56.2c0,3,1,4.5,2.48,4.5,1.68,0,2.51-1.75,2.51-4.61s-.78-4.5-2.49-4.5C12.79,226.65,11.68,228.16,11.68,231.26Z" transform="translate(-0.66 -2.98)"/></g><g class="cls-7"><path class="cls-8" d="M8.79,300.56c0,3.66-1.45,5.87-4.17,5.87-2.3,0-3.91-2-4-5.68S2.43,295,4.82,295,8.79,297,8.79,300.56Zm-6.56.2c0,3,1,4.5,2.48,4.5,1.68,0,2.51-1.75,2.51-4.61s-.78-4.5-2.5-4.5C3.34,296.15,2.23,297.66,2.23,300.76Z" transform="translate(-0.66 -2.98)"/></g><g class="cls-7"><path class="cls-8" d="M57.78,318.74h0l-2,1-.29-1.18L58,317.33h1.33v11.05h-1.5Z" transform="translate(-0.66 -2.98)"/><path class="cls-8" d="M64.3,316.21h1.55v5.37h0a3.21,3.21,0,0,1,1.2-1.17,3.4,3.4,0,0,1,1.68-.45c1.13,0,3.18.62,3.18,3.71v4.71H70.4v-4.54c0-1.43-.6-2.6-2.17-2.6A2.48,2.48,0,0,0,66,322.79a1.85,1.85,0,0,0-.12.74v4.85H64.3Z" transform="translate(-0.66 -2.98)"/></g><text x="-0.66" y="-2.98"/><g class="cls-7"><path class="cls-8" d="M201.08,328.38v-.93l1.25-1.09c3.32-3,4.52-4.2,4.53-5.73a2.09,2.09,0,0,0-2.38-2.23,4.15,4.15,0,0,0-2.6,1.05l-.53-1.07a5.3,5.3,0,0,1,3.45-1.25,3.28,3.28,0,0,1,3.62,3.27c0,2-1.52,3.57-4.16,5.92l-.92.76v0h5.37v1.26Z" transform="translate(-0.66 -2.98)"/><path class="cls-8" d="M211.05,316.21h1.55v5.37h0a3.21,3.21,0,0,1,1.2-1.17,3.4,3.4,0,0,1,1.68-.45c1.13,0,3.18.62,3.18,3.71v4.71h-1.55v-4.54c0-1.43-.6-2.6-2.17-2.6a2.48,2.48,0,0,0-2.26,1.55,1.85,1.85,0,0,0-.12.74v4.85h-1.55Z" transform="translate(-0.66 -2.98)"/></g><g class="cls-7"><path class="cls-8" d="M340.49,326.58a5.73,5.73,0,0,0,2.74.76c2.16,0,2.71-1.35,2.69-2.12,0-1.59-1.58-2.19-3.06-2.19h-1v-1.17h1c1.19,0,2.62-.54,2.62-1.83,0-.81-.56-1.65-2.11-1.65a4.58,4.58,0,0,0-2.47.79l-.45-1.11a5.93,5.93,0,0,1,3.2-.93c2.39,0,3.42,1.34,3.42,2.67a2.78,2.78,0,0,1-2.17,2.61v0a2.94,2.94,0,0,1,2.62,2.81c0,1.76-1.45,3.34-4.32,3.34a6,6,0,0,1-3.17-.84Z" transform="translate(-0.66 -2.98)"/><path class="cls-8" d="M350.05,316.21h1.55v5.37h0a3.21,3.21,0,0,1,1.2-1.17,3.4,3.4,0,0,1,1.68-.45c1.13,0,3.18.62,3.18,3.71v4.71h-1.55v-4.54c0-1.43-.6-2.6-2.17-2.6a2.48,2.48,0,0,0-2.26,1.55,1.85,1.85,0,0,0-.12.74v4.85h-1.55Z" transform="translate(-0.66 -2.98)"/></g><rect class="cls-9" x="34.1" y="353.71" width="21.48" height="21.48"/><path d="M77.14,372.52a8.54,8.54,0,0,1-3.49.63c-3.56,0-6.25-2.12-6.25-5.84,0-3.29,2.48-6,6.62-6a7.39,7.39,0,0,1,3.15.57l-.39,1.24a6.49,6.49,0,0,0-2.69-.55c-3.18,0-5.07,1.89-5.07,4.74,0,2.57,1.72,4.57,5,4.57a7,7,0,0,0,2.84-.54Z" transform="translate(-0.66 -2.98)"/><path d="M79.08,360.77h1.55V373H79.08Z" transform="translate(-0.66 -2.98)"/><path d="M85.09,362.34a1,1,0,0,1-1,1,.94.94,0,0,1-1-1,1,1,0,0,1,1-1A.94.94,0,0,1,85.09,362.34ZM83.33,373v-8.22h1.55V373Z" transform="translate(-0.66 -2.98)"/><path d="M94.06,372.62a6.7,6.7,0,0,1-2.69.53,4.13,4.13,0,0,1-4.46-4.21c0-2.59,1.9-4.42,4.8-4.42a5.58,5.58,0,0,1,2.39.5l-.36,1.17a4.18,4.18,0,0,0-2-.45,3.09,3.09,0,1,0-.06,6.17,5.16,5.16,0,0,0,2.12-.45Z" transform="translate(-0.66 -2.98)"/><path d="M97.56,368.48h0a11.29,11.29,0,0,1,.81-.94l2.69-2.81H103l-3.51,3.35,4,4.87h-2l-3.17-4-.87.89V373H96V360.77h1.54Z" transform="translate(-0.66 -2.98)"/><path d="M110.42,362.3v2.43h2.34v1.17h-2.34v4.28c0,1,.26,1.69,1.22,1.69a3.15,3.15,0,0,0,1-.13l.07,1.18a4.22,4.22,0,0,1-1.46.23,2.22,2.22,0,0,1-1.72-.68,3.21,3.21,0,0,1-.61-2.17v-4.4h-1.36v-1.17h1.36v-2Z" transform="translate(-0.66 -2.98)"/><path d="M122.78,368.73a4.3,4.3,0,0,1-4.53,4.42,4.16,4.16,0,0,1-4.38-4.23,4.28,4.28,0,0,1,4.52-4.4A4.13,4.13,0,0,1,122.78,368.73Zm-7.32.13a2.89,2.89,0,0,0,2.85,3.14,3.18,3.18,0,1,0-2.85-3.14Z" transform="translate(-0.66 -2.98)"/><path d="M128.76,361.64a27.39,27.39,0,0,1,3.61-.25c2.43,0,4.17.57,5.3,1.63a5,5,0,0,1,1.64,3.92,6,6,0,0,1-1.73,4.33,8.26,8.26,0,0,1-5.72,1.79,30.49,30.49,0,0,1-3.1-.13Zm1.55,10.11a13.29,13.29,0,0,0,1.82.08c3.75,0,5.56-2,5.56-4.83,0-2.65-1.72-4.39-5.27-4.39a10.38,10.38,0,0,0-2.11.18Z" transform="translate(-0.66 -2.98)"/><path d="M143.09,362.34a.94.94,0,0,1-1,1,.93.93,0,0,1-1-1,1,1,0,0,1,2,0ZM141.34,373v-8.22h1.55V373Z" transform="translate(-0.66 -2.98)"/><path d="M150.58,373l-.15-1.1h0a3.49,3.49,0,0,1-2.81,1.3,2.45,2.45,0,0,1-2.69-2.36c0-2,1.8-3.13,5.41-3.09v-.15a1.79,1.79,0,0,0-2.05-1.9,4.55,4.55,0,0,0-2.4.67l-.36-1a5.66,5.66,0,0,1,3-.78c2.81,0,3.39,1.93,3.39,3.51v2.91a13.57,13.57,0,0,0,.13,2Zm-.25-4.18c-1.93,0-3.87.29-3.87,1.82A1.38,1.38,0,0,0,148,372a2.36,2.36,0,0,0,2.27-1.42,1.37,1.37,0,0,0,.08-.47Z" transform="translate(-0.66 -2.98)"/><path d="M154.46,360.77H156V373h-1.55Z" transform="translate(-0.66 -2.98)"/><rect class="cls-5" x="188.97" y="353.71" width="21.48" height="21.48"/><path class="cls-5" d="M223,361.64a16.59,16.59,0,0,1,3-.25,5.16,5.16,0,0,1,3.36.84,2.41,2.41,0,0,1,1,2,2.73,2.73,0,0,1-2,2.5v.05a2.94,2.94,0,0,1,1.42,5.14c-.84.74-2.2,1.09-4.27,1.09-1.08,0-2-.08-2.49-.13Zm1.54,4.69h1.6c1.71,0,2.63-.82,2.63-1.9,0-1.42-1.18-1.87-2.71-1.87a7.07,7.07,0,0,0-1.52.12Zm0,5.46a8,8,0,0,0,1.44.08c1.6,0,3.18-.49,3.18-2.21,0-1.56-1.43-2.18-3.17-2.18h-1.45Z" transform="translate(-0.66 -2.98)"/><path class="cls-5" d="M233.54,364.73l2,4.9c.2.51.45,1.19.59,1.67h0c.17-.49.36-1.12.59-1.72l1.84-4.85h1.68l-2.55,6c-1.25,3.08-2,4.34-3.07,5.11a4.16,4.16,0,0,1-2,.86l-.33-1.29a3.86,3.86,0,0,0,1.36-.63,4.57,4.57,0,0,0,1.42-1.76.77.77,0,0,0,.12-.34,1.1,1.1,0,0,0-.12-.41l-3.35-7.58Z" transform="translate(-0.66 -2.98)"/><path class="cls-5" d="M245.69,367c0-.82,0-1.57-.07-2.25H247l.08,1.42h0a3.1,3.1,0,0,1,2.84-1.63,2.67,2.67,0,0,1,2.52,1.78h0a3.57,3.57,0,0,1,1-1.11,3,3,0,0,1,2-.67c1.09,0,3,.68,3,3.79V373h-1.51v-4.49c0-1.76-.73-2.67-2-2.67a2.19,2.19,0,0,0-2,1.38,2.27,2.27,0,0,0-.14.75v5h-1.52v-4.78c0-1.45-.72-2.38-1.9-2.38a2.36,2.36,0,0,0-2.08,1.54,2.27,2.27,0,0,0-.13.75V373h-1.51Z" transform="translate(-0.66 -2.98)"/><path class="cls-5" d="M266.08,373l-.14-1.1h-.05a3.49,3.49,0,0,1-2.8,1.3,2.45,2.45,0,0,1-2.7-2.36c0-2,1.8-3.13,5.42-3.09v-.15a1.8,1.8,0,0,0-2.06-1.9,4.57,4.57,0,0,0-2.4.67l-.36-1a5.7,5.7,0,0,1,3-.78c2.8,0,3.38,1.93,3.38,3.51v2.91a12.27,12.27,0,0,0,.14,2Zm-.24-4.18c-1.94,0-3.88.29-3.88,1.82a1.38,1.38,0,0,0,1.53,1.42,2.38,2.38,0,0,0,2.27-1.42,1.65,1.65,0,0,0,.08-.47Z" transform="translate(-0.66 -2.98)"/><path class="cls-5" d="M270,367q0-1.23-.06-2.25h1.38l.09,1.47h0a3.35,3.35,0,0,1,3-1.68c1.12,0,3.19.63,3.19,3.73V373h-1.54v-4.56c0-1.44-.61-2.6-2.16-2.6a2.44,2.44,0,0,0-2.27,1.6,2,2,0,0,0-.12.68V373H270Z" transform="translate(-0.66 -2.98)"/><path class="cls-5" d="M287.77,370.69c0,.85,0,1.59.07,2.26h-1.38l-.08-1.51h0a3.37,3.37,0,0,1-3,1.71c-1.24,0-3.11-.59-3.11-3.75v-4.67h1.55v4.38c0,1.66.58,2.76,2.08,2.76a2.46,2.46,0,0,0,2.24-1.46,2.08,2.08,0,0,0,.16-.78v-4.9h1.55Z" transform="translate(-0.66 -2.98)"/><path class="cls-5" d="M295.48,373l-.15-1.1h0a3.52,3.52,0,0,1-2.81,1.3,2.45,2.45,0,0,1-2.7-2.36c0-2,1.81-3.13,5.42-3.09v-.15a1.8,1.8,0,0,0-2.06-1.9,4.57,4.57,0,0,0-2.4.67l-.36-1a5.72,5.72,0,0,1,3-.78c2.8,0,3.38,1.93,3.38,3.51v2.91a12.27,12.27,0,0,0,.14,2Zm-.25-4.18c-1.93,0-3.87.29-3.87,1.82a1.38,1.38,0,0,0,1.52,1.42,2.37,2.37,0,0,0,2.27-1.42,1.37,1.37,0,0,0,.08-.47Z" transform="translate(-0.66 -2.98)"/><path class="cls-5" d="M299.36,360.77h1.55V373h-1.55Z" transform="translate(-0.66 -2.98)"/><path class="cls-5" d="M303.61,360.77h1.55V373h-1.55Z" transform="translate(-0.66 -2.98)"/><path class="cls-5" d="M308.35,364.73l2,4.9c.21.51.45,1.19.59,1.67h0c.17-.49.36-1.12.58-1.72l1.85-4.85h1.68l-2.55,6c-1.25,3.08-2,4.34-3.08,5.11a4.09,4.09,0,0,1-1.95.86l-.33-1.29a3.94,3.94,0,0,0,1.36-.63,4.57,4.57,0,0,0,1.42-1.76.92.92,0,0,0,.12-.34,1,1,0,0,0-.13-.41l-3.35-7.58Z" transform="translate(-0.66 -2.98)"/><path class="cls-5" d="M327,372.62a6.7,6.7,0,0,1-2.69.53,4.13,4.13,0,0,1-4.46-4.21c0-2.59,1.9-4.42,4.8-4.42a5.58,5.58,0,0,1,2.39.5l-.36,1.17a4.18,4.18,0,0,0-2-.45,3.09,3.09,0,1,0-.06,6.17,5.26,5.26,0,0,0,2.13-.45Z" transform="translate(-0.66 -2.98)"/><path class="cls-5" d="M333.93,373l-.15-1.1h0a3.49,3.49,0,0,1-2.81,1.3,2.45,2.45,0,0,1-2.69-2.36c0-2,1.8-3.13,5.41-3.09v-.15a1.79,1.79,0,0,0-2-1.9,4.55,4.55,0,0,0-2.4.67l-.36-1a5.69,5.69,0,0,1,3-.78c2.81,0,3.39,1.93,3.39,3.51v2.91a13.57,13.57,0,0,0,.13,2Zm-.25-4.18c-1.93,0-3.87.29-3.87,1.82a1.38,1.38,0,0,0,1.52,1.42,2.36,2.36,0,0,0,2.27-1.42,1.37,1.37,0,0,0,.08-.47Z" transform="translate(-0.66 -2.98)"/><path class="cls-5" d="M337.81,360.77h1.55V373h-1.55Z" transform="translate(-0.66 -2.98)"/><path class="cls-5" d="M342.06,360.77h1.55V373h-1.55Z" transform="translate(-0.66 -2.98)"/><path class="cls-5" d="M348.06,362.34a.94.94,0,0,1-1,1,.93.93,0,0,1-.95-1,1,1,0,0,1,1-1A.93.93,0,0,1,348.06,362.34ZM346.31,373v-8.22h1.55V373Z" transform="translate(-0.66 -2.98)"/><path class="cls-5" d="M350.56,367c0-.82,0-1.57-.07-2.25h1.38l.09,1.47H352a3.34,3.34,0,0,1,3-1.68c1.13,0,3.2.63,3.2,3.73V373h-1.55v-4.56c0-1.44-.6-2.6-2.15-2.6a2.47,2.47,0,0,0-2.28,1.6,2.25,2.25,0,0,0-.11.68V373h-1.55Z" transform="translate(-0.66 -2.98)"/><path class="cls-5" d="M368.63,364.73c-.05.58-.07,1.23-.07,2.14v4.83a4.84,4.84,0,0,1-1.3,3.83,4.93,4.93,0,0,1-3.26,1,5.78,5.78,0,0,1-3.05-.77l.39-1.19a5.08,5.08,0,0,0,2.72.76,2.69,2.69,0,0,0,3-3v-1h0a3.37,3.37,0,0,1-3,1.51,3.85,3.85,0,0,1-3.87-4,4.15,4.15,0,0,1,4.08-4.39,3.09,3.09,0,0,1,2.91,1.54h0l.06-1.33ZM367,368.09a2.5,2.5,0,0,0-.09-.69,2.44,2.44,0,0,0-2.4-1.7,2.81,2.81,0,0,0-2.78,3.12,2.73,2.73,0,0,0,2.76,2.93,2.55,2.55,0,0,0,2.38-1.66,2.76,2.76,0,0,0,.13-.82Z" transform="translate(-0.66 -2.98)"/></g></g></svg>