<svg xmlns="http://www.w3.org/2000/svg" xmlns:xlink="http://www.w3.org/1999/xlink" viewBox="0 0 277.5 277.5"><defs><style>.cls-1{fill:url(#Degradado_sin_nombre_13);}.cls-2{fill:url(#Degradado_sin_nombre_13-2);}.cls-3{fill:url(#Degradado_sin_nombre_13-3);}</style><linearGradient id="Degradado_sin_nombre_13" x1="106.05" y1="135.77" x2="168.54" y2="135.77" gradientTransform="translate(210.19 -43.03) rotate(67.5)" gradientUnits="userSpaceOnUse"><stop offset="0" stop-color="#22d0fd"/><stop offset="0.08" stop-color="#27bdfd"/><stop offset="0.29" stop-color="#3290fe"/><stop offset="0.5" stop-color="#3b6dfe"/><stop offset="0.69" stop-color="#4254ff"/><stop offset="0.86" stop-color="#4644ff"/><stop offset="1" stop-color="#473fff"/></linearGradient><linearGradient id="Degradado_sin_nombre_13-2" x1="60.52" y1="135.84" x2="214.18" y2="135.84" gradientTransform="matrix(1, 0, 0, 1, 0, 0)" xlink:href="#Degradado_sin_nombre_13"/><linearGradient id="Degradado_sin_nombre_13-3" x1="0" y1="138.75" x2="277.5" y2="138.75" gradientTransform="matrix(1, 0, 0, 1, 0, 0)" xlink:href="#Degradado_sin_nombre_13"/></defs><g id="Capa_2" data-name="Capa 2"><g id="Capa_1-2" data-name="Capa 1"><circle class="cls-1" cx="137.29" cy="135.77" r="31.24" transform="translate(-40.68 210.66) rotate(-67.5)"/><path class="cls-2" d="M210.41,80.57a29.26,29.26,0,0,0-7-10.77,28.79,28.79,0,0,0-10.77-7c-3.3-1.29-8.24-2.82-17.4-3.23-9.85-.44-12.82-.55-37.87-.55s-28,.11-37.88.55c-9.12.41-14.1,1.94-17.39,3.23a29.11,29.11,0,0,0-10.77,7,28.55,28.55,0,0,0-7,10.77C63,83.87,61.47,88.81,61.07,98c-.44,9.85-.55,12.85-.55,37.87s.11,28,.55,37.88c.4,9.12,1.94,14.1,3.22,17.39a29.26,29.26,0,0,0,7,10.77,28.69,28.69,0,0,0,10.77,7c3.29,1.28,8.24,2.82,17.4,3.22,9.85.44,12.85.55,37.87.55s28-.11,37.87-.55c9.13-.4,14.11-1.94,17.4-3.22a31.13,31.13,0,0,0,17.81-17.8c1.28-3.3,2.82-8.24,3.22-17.4.44-9.89.55-12.82.55-37.84s-.11-28-.55-37.87C213.23,88.85,211.69,83.87,210.41,80.57ZM137.29,183.93a48.17,48.17,0,1,1,48.17-48.16A48.17,48.17,0,0,1,137.29,183.93Zm50.07-87A11.25,11.25,0,1,1,198.61,85.7,11.24,11.24,0,0,1,187.36,96.94Z"/><path class="cls-3" d="M227.63,0H49.88A49.88,49.88,0,0,0,0,49.88V227.63A49.88,49.88,0,0,0,49.88,277.5H227.63a49.87,49.87,0,0,0,49.87-49.87V49.88A49.88,49.88,0,0,0,227.63,0Zm2.81,174.41c-.44,10-2.05,16.78-4.36,22.75a47.93,47.93,0,0,1-27.43,27.43c-5.94,2.31-12.79,3.92-22.75,4.36s-13.18.55-38.64.55-28.65-.11-38.64-.55-16.78-2-22.75-4.36a48,48,0,0,1-27.44-27.43c-2.3-5.94-3.92-12.79-4.35-22.75s-.55-13.18-.55-38.64.11-28.64.58-38.68,2-16.78,4.36-22.75A46.19,46.19,0,0,1,59.28,57.75,45.57,45.57,0,0,1,75.91,46.91C81.84,44.6,88.69,43,98.65,42.55S111.84,42,137.29,42s28.65.11,38.68.59,16.78,2,22.75,4.35a48.1,48.1,0,0,1,27.44,27.44c2.3,5.93,3.91,12.78,4.35,22.75s.48,13.18.48,38.64S230.88,164.41,230.44,174.41Z"/></g></g></svg>