<?xml version="1.0" encoding="utf-8"?>
<!-- Generator: Adobe Illustrator 24.1.2, SVG Export Plug-In . SVG Version: 6.00 Build 0)  -->
<svg version="1.1" id="Capa_1" xmlns="http://www.w3.org/2000/svg" xmlns:xlink="http://www.w3.org/1999/xlink" x="0px" y="0px"
	 viewBox="0 0 110.5 76.6" style="enable-background:new 0 0 110.5 76.6;" xml:space="preserve">
<style type="text/css">
	.st0{fill:#FFFFFF;}
</style>
<g>
	<path class="st0" d="M52.6,75.9c3.6-3.9,6.9-7.5,10.2-11.1c0.9-1,2-0.7,3.1-0.7c4-0.1,7.9,0.1,11.9-0.1
		c10.5-0.4,17.5-8.3,17.7-19.7C95.6,32,89.1,23.8,78.5,23c-3.6-0.3-7.2,0-10.8-0.2c-2.3-0.1-2.8,0.8-2.8,3
		c0.1,6.2,0.5,12.4-0.2,18.5c-2.2,19.7-17,31-35.8,27.7C14.4,69.5,6,59.9,4.6,44.6c-0.3-2.9,0.5-4,3.2-3.6c0.2,0,0.5,0,0.7,0
		c2.6,0,5.7-0.7,7.8,0.4c2.3,1.1,1,4.7,1.8,7.2c1.7,5.1,4.8,8.6,9.8,10.1C41.7,62.8,51.8,55,52,40c0-0.4,0-0.8,0-1.1
		c0.1-5-1.3-10.7,0.5-14.9c2-4.4,6.9-7.4,10.6-11.1c0.9-0.8,1.7-1.8,3.1-1.7c5.9,0.2,11.8-0.5,17.6,0.8
		c12.1,2.6,20.2,11.3,22.6,24.8c3,17.4-4.9,36.7-26.4,39c-0.6,0.1-1.2,0.1-1.8,0.1C69.8,75.9,61.3,75.9,52.6,75.9z"/>
	<path class="st0" d="M61.4,2.2C57.3,6,53.3,9.9,49.2,13.6c-0.5,0.5-1.6,0.5-2.4,0.5c-5.3,0-10.6-0.1-15.9,0.1
		c-2.1,0.1-2.6-0.7-2.6-2.8c-0.3-9.9-0.3-9.9,9.1-9.9c7.9,0,15.7,0,23.6,0C61.1,1.7,61.2,1.9,61.4,2.2z"/>
</g>
</svg>
