<svg xmlns="http://www.w3.org/2000/svg" viewBox="0 0 512.01 490.68"><defs><style>.cls-1{fill:#fff;}</style></defs><g id="Capa_2" data-name="Capa 2"><g id="Capa_1-2" data-name="Capa 1"><path class="cls-1" d="M437.33,426.68a16.51,16.51,0,0,1-5.16-.85l-421.33-144a16,16,0,0,1-2.26-29.34l480-250.66a16,16,0,0,1,23.25,16.55L453.16,413.05a16,16,0,0,1-15.83,13.63ZM56.45,263.59,424.32,389.33,475.54,44.75Z"/><path class="cls-1" d="M202.67,490.68a15.7,15.7,0,0,1-5-.79,16,16,0,0,1-11-15.21v-144A16.06,16.06,0,0,1,191,319.76L484.29,5.09a16,16,0,1,1,23.42,21.85l-289,310v88.92l53.4-72.68a16,16,0,0,1,25.79,19l-82.29,112a16.09,16.09,0,0,1-12.9,6.51Z"/></g></g></svg>