<svg xmlns="http://www.w3.org/2000/svg" xmlns:xlink="http://www.w3.org/1999/xlink" viewBox="0 0 333 333"><defs><style>.cls-1{fill:url(#Degradado_sin_nombre_13);}</style><linearGradient id="Degradado_sin_nombre_13" y1="166.5" x2="333" y2="166.5" gradientUnits="userSpaceOnUse"><stop offset="0" stop-color="#22d0fd"/><stop offset="0.08" stop-color="#27bdfd"/><stop offset="0.29" stop-color="#3290fe"/><stop offset="0.5" stop-color="#3b6dfe"/><stop offset="0.69" stop-color="#4254ff"/><stop offset="0.86" stop-color="#4644ff"/><stop offset="1" stop-color="#473fff"/></linearGradient></defs><g id="Capa_2" data-name="Capa 2"><g id="Capa_1-2" data-name="Capa 1"><path class="cls-1" d="M249.47,0H83.53A83.53,83.53,0,0,0,0,83.53V249.47A83.53,83.53,0,0,0,83.53,333H249.47A83.53,83.53,0,0,0,333,249.47V83.53A83.53,83.53,0,0,0,249.47,0ZM266,250.29A15.73,15.73,0,0,1,250.29,266C149.23,266,67,183.77,67,82.71A15.73,15.73,0,0,1,82.71,67h36.66a15.73,15.73,0,0,1,15.71,15.71,113.81,113.81,0,0,0,5.72,35.76,15.85,15.85,0,0,1-3.89,16l-16.6,22.06c13.65,25.73,30.24,42.31,56.16,56.15l22.59-17.06c3.66-3.73,10-5.21,15.54-3.29A113.7,113.7,0,0,0,250.29,198,15.72,15.72,0,0,1,266,213.74Z"/></g></g></svg>