<svg xmlns="http://www.w3.org/2000/svg" viewBox="0 0 512.01 322.47"><defs><style>.cls-1{fill:#fff;}</style></defs><g id="Capa_2" data-name="Capa 2"><g id="Capa_1-2" data-name="Capa 1"><path class="cls-1" d="M510.35,13.27a21.49,21.49,0,0,0-4.67-7c-.12-.13-.25-.15-.36-.26a19.1,19.1,0,0,0-13-5.68c-.65,0-1.19-.34-1.83-.34H318.4a21.52,21.52,0,1,0,0,43H438.78L268.49,214.29l-64.8-83a21.5,21.5,0,0,0-15.34-8.21A21.23,21.23,0,0,0,171.94,129L6.72,285.37A21.51,21.51,0,0,0,36.3,316.6l148-140.15L249.58,260a21.52,21.52,0,0,0,32.22,1.94L469,73.66v120a21.52,21.52,0,1,0,43,0V21.49A22,22,0,0,0,510.35,13.27Z"/></g></g></svg>