<svg xmlns="http://www.w3.org/2000/svg" viewBox="0 0 469.33 362.67"><defs><style>.cls-1{fill:#fff;}</style></defs><g id="Capa_2" data-name="Capa 2"><g id="Capa_1-2" data-name="Capa 1"><path class="cls-1" d="M438.83,133,358.61,44.86a40.83,40.83,0,0,0-57.74.13,39.91,39.91,0,0,0-10.33,17.65,40.87,40.87,0,0,0-64,21.31,40.87,40.87,0,0,0-53.65,3.71,40.2,40.2,0,0,0-10.24,17.22L124.82,67.07a40.84,40.84,0,0,0-57.75,57.75L212.31,270.06l-86.14,13.52a47.8,47.8,0,0,0-40.84,47.09,32,32,0,0,0,32,32H318.49a116.57,116.57,0,0,0,83-34.37L435,294.74A117.2,117.2,0,0,0,438.83,133ZM419.92,279.66l-33.55,33.56a95.39,95.39,0,0,1-67.89,28.11H117.33a10.66,10.66,0,0,1-10.66-10.66,26.4,26.4,0,0,1,22.67-26l107-16.81a10.66,10.66,0,0,0,5.89-18.07L82.15,109.74a19.51,19.51,0,0,1,27.59-27.58L216.47,188.89a10.67,10.67,0,1,0,15.06-15.11L188,130.2a19.51,19.51,0,0,1,27.58-27.59l43.61,43.61a10.67,10.67,0,1,0,15.06-15.11L252,108.86a19.5,19.5,0,0,1,27.58-27.58l22.36,22.36s0,0,0,0l0,0,0,0,0,0h0a0,0,0,0,1,0,0,10.67,10.67,0,0,0,14.87-15.29l-.92-.92a19.41,19.41,0,0,1,.11-27.59c7.59-7.55,19.88-7.53,27.11-.36l79.87,87.79a95.87,95.87,0,0,1-3.14,132.29Z"/><path class="cls-1" d="M183.38,56.6A95.91,95.91,0,1,0,56.6,183.4,10.67,10.67,0,0,0,65.39,164,74.57,74.57,0,1,1,164,65.39a10.66,10.66,0,1,0,19.43-8.79Z"/></g></g></svg>