<svg xmlns="http://www.w3.org/2000/svg" xmlns:xlink="http://www.w3.org/1999/xlink" viewBox="0 0 277.5 277.5"><defs><style>.cls-1{fill:url(#Degradado_sin_nombre_13);}.cls-2{fill:url(#Degradado_sin_nombre_13-2);}</style><linearGradient id="Degradado_sin_nombre_13" x1="60.72" y1="137.93" x2="217.58" y2="137.93" gradientUnits="userSpaceOnUse"><stop offset="0" stop-color="#22d0fd"/><stop offset="0.08" stop-color="#27bdfd"/><stop offset="0.29" stop-color="#3290fe"/><stop offset="0.5" stop-color="#3b6dfe"/><stop offset="0.69" stop-color="#4254ff"/><stop offset="0.86" stop-color="#4644ff"/><stop offset="1" stop-color="#473fff"/></linearGradient><linearGradient id="Degradado_sin_nombre_13-2" x1="0" y1="138.75" x2="277.5" y2="138.75" xlink:href="#Degradado_sin_nombre_13"/></defs><g id="Capa_2" data-name="Capa 2"><g id="Capa_1-2" data-name="Capa 1"><path class="cls-1" d="M217.58,138A78.43,78.43,0,1,0,72.71,179.64l1.86,3-7.92,28.94,29.68-7.78,2.87,1.7a78.38,78.38,0,0,0,39.91,10.93h0A78.54,78.54,0,0,0,217.58,138Zm-32.27,33.66c-2,5.5-11.38,10.53-15.91,11.21a32.34,32.34,0,0,1-14.85-.94,133.25,133.25,0,0,1-13.45-5c-23.65-10.22-39.09-34-40.27-35.6s-9.63-12.79-9.63-24.39,6.09-17.31,8.25-19.67a8.67,8.67,0,0,1,6.29-3c1.57,0,3.14,0,4.52.08s3.39-.55,5.3,4,6.68,16.32,7.27,17.5a4.33,4.33,0,0,1,.2,4.13,66,66,0,0,1-5.9,8.07c-1,1.3-2.4,2.45-1,4.81a71.19,71.19,0,0,0,13.12,16.33c9,8,16.6,10.52,19,11.7s3.73,1,5.11-.59,5.89-6.88,7.46-9.24,3.15-2,5.3-1.18,13.76,6.49,16.12,7.67,3.93,1.77,4.51,2.75S187.27,166.11,185.31,171.62Z"/><path class="cls-2" d="M277.5,49.88A49.88,49.88,0,0,0,227.63,0H49.88A49.88,49.88,0,0,0,0,49.88V227.63A49.88,49.88,0,0,0,49.88,277.5H227.63a49.87,49.87,0,0,0,49.87-49.87ZM139.15,232.33h0A94.3,94.3,0,0,1,94,220.84L44,234l13.39-48.89a94.36,94.36,0,1,1,81.77,47.26Z"/></g></g></svg>